<svg width="23" height="24" viewBox="0 0 23 24" fill="none" xmlns="http://www.w3.org/2000/svg">
<g clip-path="url(#clip0_1_6721)">
<path d="M3.43461 4.40723V9.23634H2.74474V10.6161H4.12448C4.12448 10.7311 4.07361 10.8587 3.86982 11.0863C3.66603 11.314 3.33229 11.5905 2.96975 11.9204C2.24468 12.5801 1.36499 13.5553 1.36499 15.0289V15.4775L1.77595 15.6594C1.77595 15.6594 2.03282 15.7668 2.23811 15.8521C2.12139 16.1539 2.05486 16.4812 2.05486 16.8249C2.05486 18.3408 3.29848 19.5844 4.81436 19.5844C6.12794 19.5844 7.23384 18.6494 7.50648 17.4138C7.93331 17.4746 8.35509 17.5148 8.75957 17.5148H12.6293C13.4227 17.5148 14.1786 17.2199 14.7798 16.7104C14.81 16.6997 15.2539 16.5643 15.8887 16.3992C15.8669 16.5387 15.8523 16.68 15.8523 16.8249C15.8523 18.3408 17.0959 19.5844 18.6118 19.5844C20.1277 19.5844 21.3713 18.3408 21.3713 16.8249C21.3713 16.4266 21.2822 16.0489 21.1288 15.7053C21.2115 15.7043 21.2877 15.6972 21.3713 15.6972H22.0612V14.5896L21.9857 14.4427C21.6925 13.867 21.1508 13.3295 20.4443 12.8555C19.8854 12.4805 19.22 12.1697 18.4959 12.0524C18.2918 11.0948 17.6633 8.74983 15.9615 6.47685H17.2321V4.40723H15.5074C15.0577 4.40723 14.6785 4.69611 14.5359 5.0971H12.403V6.47685H14.1344C14.8617 7.27001 15.4055 8.1038 15.8335 8.89679C15.7356 9.91434 14.8882 11.2573 13.9565 12.3084C13.044 13.338 12.2657 13.954 12.1281 14.0655H10.3333C10.0374 14.0655 9.82792 13.9946 9.74588 13.9375C9.66383 13.8803 9.64347 13.8808 9.64347 13.6909C9.64347 13.2728 9.87449 12.8725 10.2067 12.4014C10.481 12.0123 10.8016 11.5565 10.9249 10.9705C10.9891 10.8634 11.0231 10.7409 11.0232 10.6161C11.0232 10.1133 10.7423 9.67158 10.3333 9.43037V4.40723H3.43461ZM4.81436 5.78697H6.1941V7.16672H7.57385V5.78697H8.9536V9.23634H4.81436V5.78697ZM5.50423 10.6161H9.64347C9.64347 10.7297 9.43793 11.0992 9.08025 11.6064C8.72258 12.1137 8.26372 12.7913 8.26372 13.6909C8.26372 14.2501 8.54435 14.7828 8.95764 15.0706C9.37093 15.3584 9.85109 15.4452 10.3333 15.4452H12.403C12.559 15.4454 12.7106 15.3927 12.8328 15.2956C12.8328 15.2956 13.9091 14.4412 14.9886 13.2233C15.6082 12.5243 16.2486 11.7052 16.6877 10.8101C16.9842 11.6539 17.1172 12.2881 17.1512 12.4769L14.0037 15.5732V15.5719C13.6363 15.9326 13.1432 16.1351 12.6293 16.1351H8.75957C7.59095 16.1351 5.94528 15.7111 4.63246 15.2727C4.15728 15.1141 3.82722 14.9913 3.55857 14.886C3.51562 14.8638 3.47046 14.8462 3.42383 14.8335C3.19496 14.7413 3.01004 14.6615 2.866 14.6004C3.0055 13.9326 3.36407 13.4289 3.89947 12.9417C4.2268 12.6439 4.58293 12.357 4.89655 12.0066C5.21016 11.6563 5.50423 11.191 5.50423 10.6161ZM18.1766 13.4039C18.6724 13.4678 19.213 13.6913 19.6763 14.0021C19.907 14.1569 19.9593 14.2826 20.1331 14.4522C20.0923 14.4547 20.055 14.4589 20.0145 14.4616C19.9355 14.4303 19.8515 14.4139 19.7666 14.4131C19.6387 14.4125 19.5132 14.4475 19.4041 14.5141C18.452 14.5996 17.636 14.7222 16.8912 14.8537C16.8835 14.8549 16.8759 14.8563 16.8683 14.8577C16.7992 14.87 16.7276 14.8818 16.6608 14.8941L18.1766 13.4039ZM19.5079 15.7874C19.8002 16.0398 19.9916 16.4035 19.9916 16.8249C19.9916 17.5953 19.3822 18.2047 18.6118 18.2047C17.8415 18.2047 17.2321 17.5953 17.2321 16.8249C17.2321 16.5326 17.3246 16.2696 17.4773 16.0475C18.0789 15.9407 18.7659 15.8519 19.5079 15.7874ZM3.52893 16.3358C3.765 16.4215 3.92972 16.4922 4.1959 16.5811C4.79957 16.7826 5.47044 16.9798 6.15368 17.1456C6.0111 17.757 5.47348 18.2047 4.81436 18.2047C4.044 18.2047 3.43461 17.5953 3.43461 16.8249C3.43461 16.651 3.46846 16.4875 3.52893 16.3358Z" fill="#333333"/>
</g>
<defs>
<clipPath id="clip0_1_6721">
<rect width="22.0759" height="22.0759" fill="white" transform="translate(0.675293 0.957764)"/>
</clipPath>
</defs>
</svg>
