<svg width="23" height="23" viewBox="0 0 23 23" fill="none" xmlns="http://www.w3.org/2000/svg">
<path d="M7.64126 2.87769C6.50644 2.87769 5.57164 3.81248 5.57164 4.94731C5.57164 6.08213 6.50644 7.01693 7.64126 7.01693C8.77608 7.01693 9.71088 6.08213 9.71088 4.94731C9.71088 3.81248 8.77608 2.87769 7.64126 2.87769ZM7.64126 4.25743C8.03106 4.25743 8.33113 4.55751 8.33113 4.94731C8.33113 5.33711 8.03106 5.63718 7.64126 5.63718C7.25146 5.63718 6.95139 5.33711 6.95139 4.94731C6.95139 4.55751 7.25146 4.25743 7.64126 4.25743ZM4.19189 7.7068V12.5359C4.19189 14.4543 5.32355 16.114 6.95139 16.8921V19.4346H8.33113V17.3098C8.55714 17.3425 8.78622 17.365 9.02101 17.365H11.0906V15.9853H9.02101C7.10753 15.9853 5.57164 14.4494 5.57164 12.5359V7.7068H4.19189ZM6.95139 7.7068V12.5359C6.95139 13.6707 7.88619 14.6055 9.02101 14.6055H11.2874C11.7655 14.6055 12.1667 14.9398 12.2521 15.4099L12.2858 15.4032L11.666 19.4346H12.4704H20.059V9.08655H13.2586L12.5512 13.6853C12.1755 13.4365 11.7626 13.2258 11.2874 13.2258H9.02101C8.63121 13.2258 8.33113 12.9257 8.33113 12.5359V7.7068H6.95139ZM14.4416 10.4663H18.6792V18.0549H13.2748L14.4416 10.4663Z" fill="#333333"/>
</svg>
