<svg width="19" height="18" viewBox="0 0 19 18" fill="none" xmlns="http://www.w3.org/2000/svg">
<path d="M10.5319 2.63248L11.8519 5.27248C12.0319 5.63998 12.5119 5.99248 12.9169 6.05998L15.3094 6.45748C16.8394 6.71248 17.1994 7.82248 16.0969 8.91748L14.2369 10.7775C13.9219 11.0925 13.7494 11.7 13.8469 12.135L14.3794 14.4375C14.7994 16.26 13.8319 16.965 12.2194 16.0125L9.97693 14.685C9.57193 14.445 8.90443 14.445 8.49193 14.685L6.24943 16.0125C4.64443 16.965 3.66943 16.2525 4.08943 14.4375L4.62193 12.135C4.71943 11.7 4.54693 11.0925 4.23193 10.7775L2.37193 8.91748C1.27693 7.82248 1.62943 6.71248 3.15943 6.45748L5.55193 6.05998C5.94943 5.99248 6.42943 5.63998 6.60943 5.27248L7.92943 2.63248C8.64943 1.19998 9.81943 1.19998 10.5319 2.63248Z" fill="#1CAE81"/>
</svg>
