<svg width="23" height="24" viewBox="0 0 23 24" fill="none" xmlns="http://www.w3.org/2000/svg">
<path d="M8.43658 3.25732C7.04774 3.25732 5.90705 4.39802 5.90705 5.78686V7.00402L4.96566 8.8868C4.37447 10.0682 4.06738 11.3712 4.06738 12.6919V18.2046C4.06738 19.5934 5.20808 20.7341 6.59692 20.7341H13.4885L17.1507 20.77C18.5484 20.7834 19.7045 19.6387 19.7045 18.2405V12.2634C19.7045 11.2429 19.5206 10.2318 19.1629 9.27665L18.3248 7.04175V5.78686C18.3248 4.39802 17.1841 3.25732 15.7952 3.25732H8.43658ZM8.43658 4.63707H15.7952C16.4383 4.63707 16.945 5.14379 16.945 5.78686V6.47673H7.28679V5.78686C7.28679 5.14379 7.79351 4.63707 8.43658 4.63707ZM7.0236 7.85648H16.6396L16.1069 9.27665C15.9436 9.71263 15.8214 10.1611 15.7315 10.616H5.75793C5.87402 10.2347 6.02047 9.86243 6.19988 9.50391L7.0236 7.85648ZM17.6349 9.13113L17.8711 9.76082C18.1711 10.5616 18.3248 11.4084 18.3248 12.2634V18.2405C18.3248 18.8887 17.8118 19.3967 17.1642 19.3903L16.6477 19.3849C16.8363 19.0316 16.945 18.6302 16.945 18.2046V12.2634C16.945 11.4084 17.0987 10.5616 17.3986 9.76082L17.6349 9.13113ZM5.48306 11.9957H15.5769C15.5741 12.0851 15.5653 12.1739 15.5653 12.2634V18.2046C15.5653 18.8476 15.0585 19.3544 14.4155 19.3544H13.5028H6.59692C5.95385 19.3544 5.44713 18.8476 5.44713 18.2046V12.6919C5.44713 12.4587 5.46038 12.2268 5.48306 11.9957Z" fill="#1CAE81"/>
</svg>
